<mxfile host="app.diagrams.net" modified="2022-12-29T16:00:28.032Z" agent="5.0 (X11; Linux x86_64) AppleWebKit/537.36 (KHTML, like Gecko) Chrome/108.0.0.0 Safari/537.36" version="20.7.4" etag="lkrJ3F8nPtIar3dj-xeO" type="github">
  <diagram id="U5Y3PDd60rvjHy8kK0wa" name="Trang-1">
    <mxGraphModel dx="1804" dy="1064" grid="1" gridSize="10" guides="1" tooltips="1" connect="1" arrows="1" fold="1" page="1" pageScale="1" pageWidth="1169" pageHeight="827" math="0" shadow="0">
      <root>
        <mxCell id="0" />
        <mxCell id="1" parent="0" />
      </root>
    </mxGraphModel>
  </diagram>
</mxfile>
